    <svg xmlns="http://www.w3.org/2000/svg" xml:space="preserve" viewBox="36 14 93 89">
        <defs>
            <linearGradient id="logoGradient" x1="1" y1="0" x2="1" y2="1">
                <stop offset="0%" stop-color="red"/>
                <stop offset="25%" stop-color="red"/>
                <stop offset="290%" stop-color="red"/>
            </linearGradient>
        </defs>
        <g fill="white">
            <path
                id="0"
                d="M58.41,66a29,29,0,0,0,11.08,3.9,15.76,15.76,0,0,0,3.62-6.3A22.18,22.18,0,0,1,65,54.35c-10.61-2.81-20.26-14.65-9-32.72C35.06,39.23,47.7,59.82,58.41,66Z"
            />
            <path
                id="1"
                d="M87.88,34.08A29,29,0,0,0,79,41.7,15.44,15.44,0,0,0,82.6,48a22.52,22.52,0,0,1,10.16-2.49c.62,0,1.24,0,1.87.08,7.74-7.77,22.81-10.19,32.82,8.58C122.7,27.22,98.55,27.87,87.88,34.08Z"
            />
            <path
                id="2"
                d="M94.83,63.57a13.92,13.92,0,0,0-3.51.43,22.18,22.18,0,0,1-3.93,11.6c2.87,10.59-2.56,24.87-23.84,24.15,25.73,9.38,37.24-11.87,37.2-24.21A29,29,0,0,0,98.59,64,17.23,17.23,0,0,0,94.83,63.57Z"
            />
        </g>
        <path
            id="3"
            d="M106.28,51.09C94,44.06,86,47.93,82.35,49.85c-9.77-8.35-9.27-33.5,18.8-32.55C75.42,7.92,63.9,29.17,63.94,41.51c0,14.15,7.38,19.11,10.9,21.35h0c-2.35,12.63-24.37,24.78-37.59,0C42,89.83,66.15,89.18,76.82,83,89,75.86,89.68,67,89.86,62.86h0c12.11-4.28,33.65,8.72,18.8,32.56C129.64,77.82,117,57.23,106.28,51.09Z"
            fill="url(#logoGradient)"
        />
    </svg>
